<svg xmlns="http://www.w3.org/2000/svg" viewBox="0 0 28 28" width="28" height="28"><path fill="#000" d="m10.12 21.08 1.06 1.06-1.59 1.6-1.06-1.07 1.6-1.59ZM9.06 20.02 8 18.96l-3 3 1.06 1.07 3-3.01ZM5.88 16.84l1.06 1.06-1.6 1.59-1.05-1.06 1.59-1.6Z" data-part="fire" style="fill: #000;"></path><path fill="currentColor" fill-rule="evenodd" d="m23.91 4.1.04.67c.07 1.09-.05 3.04-.58 5.12a13.12 13.12 0 0 1-3.17 6.06c-3.18 3.18-6.18 4.74-7.37 5.14l-.44.14-5.6-5.6.15-.44c.4-1.2 1.95-4.19 5.13-7.37a13.12 13.12 0 0 1 6.06-3.17c2.09-.53 4.04-.64 5.12-.58l.66.04Zm-5.66 9.2a2.5 2.5 0 1 1-3.53-3.53 2.5 2.5 0 0 1 3.53 3.53Z" data-part="body" style="fill: #000;"></path><path fill="currentColor" d="M10.2 7.6H8.04l-5.42 5.42 3.27.76a24.86 24.86 0 0 1 4.3-6.18ZM20.42 17.83a24.85 24.85 0 0 1-6.18 4.3L15 25.4l5.42-5.42v-2.15Z" data-part="body" style="fill: #000;"></path></svg>